<svg xmlns="http://www.w3.org/2000/svg" x="0" y="0" enable-background="new 0 0 489.141 489.141" version="1.1" viewBox="0 0 489.141 489.141" xml:space="preserve"><path fill="#58B741" d="M0 192.146c34.993-24.236 118.908-13.401 165.395 7.86 34.558 15.807 59.93 42.632 72.538 72.761.421.967.821 1.939 1.198 2.916 3.297 8.485 5.592 17.203 6.79 25.985.141 1.049.275 2.103.388 3.149-34.999 24.228-85.716 28.579-132.203 7.318-25.858-11.839-56.851-34.535-80.046-59.64C15.557 232.464 2.028 210.919 0 192.146z"/><path fill="#70D65B" d="M0 192.146c34.993-24.236 118.908-13.401 165.395 7.86 34.558 15.807 59.93 42.632 72.538 72.761.421.967.821 1.939 1.198 2.916 3.297 8.485 5.592 17.203 6.79 25.985C171.149 277.795 22.118 207.365 0 192.146z"/><path fill="#58B741" d="M104.165 38.299c42.48 2.71 101.56 63.28 124.82 108.8 17.29 33.84 20.54 70.62 11.73 102.07-.27 1.02-.56 2.03-.87 3.03-2.68 8.7-6.29 16.96-10.8 24.59-.54.91-1.09 1.82-1.65 2.71-42.48-2.72-84.95-30.78-108.21-76.3-12.93-25.33-23.15-62.36-25.76-96.44-2.08-27.19.68-52.48 10.74-68.46z"/><path fill="#70D65B" d="M104.165 38.299c42.48 2.71 101.56 63.28 124.82 108.8 17.29 33.84 20.54 70.62 11.73 102.07-.27 1.02-.56 2.03-.87 3.03-2.68 8.7-6.29 16.96-10.8 24.59-43.82-65.12-116.98-212.83-124.88-238.49zM477.753 61.756c-42.48 2.71-101.56 63.28-124.82 108.8-17.29 33.84-20.54 70.62-11.73 102.07.27 1.02.56 2.03.87 3.03 2.68 8.7 6.29 16.96 10.8 24.59.54.91 1.09 1.82 1.65 2.71 42.48-2.72 84.95-30.78 108.21-76.3 12.93-25.33 23.15-62.36 25.76-96.44 2.08-27.19-.68-52.48-10.74-68.46z"/><path fill="#58B741" d="M477.753 61.756c-42.48 2.71-101.56 63.28-124.82 108.8-17.29 33.84-20.54 70.62-11.73 102.07.27 1.02.56 2.03.87 3.03 2.68 8.7 6.29 16.96 10.8 24.59 43.82-65.12 116.98-212.83 124.88-238.49z"/><path fill="#463068" d="M363.809 233.086c0 35.75-23.4 66.02-55.71 76.35-7.7 2.47-15.91 3.8-24.43 3.8-44.27 0-80.15-35.88-80.15-80.15 0-44.26 35.88-80.14 80.15-80.14 8.52 0 16.73 1.33 24.43 3.8 32.31 10.33 55.71 40.6 55.71 76.34z"/><path fill="#654B87" d="M363.809 233.086c0 35.75-23.4 66.02-55.71 76.35-32.31-10.33-55.71-40.6-55.71-76.35 0-35.74 23.4-66.01 55.71-76.34 32.31 10.33 55.71 40.6 55.71 76.34z"/><path fill="#463068" d="M457.124 283.779c0 34.91-22.31 64.59-53.44 75.58-.75.27-1.51.53-2.27.77-7.7 2.47-15.91 3.8-24.43 3.8-43.75 0-79.3-35.04-80.13-78.59-.02-.52-.02-1.04-.02-1.56 0-44.26 35.88-80.14 80.15-80.14 8.52 0 16.73 1.33 24.43 3.8 32.31 10.331 55.71 40.601 55.71 76.34z"/><path fill="#654B87" d="M457.123 283.777c0 35.75-23.4 66.02-55.71 76.35-32.31-10.33-55.71-40.6-55.71-76.35 0-35.74 23.4-66.01 55.71-76.34 32.31 10.33 55.71 40.6 55.71 76.34z"/><path fill="#463068" d="M269.29 324.321c0 35.75-23.4 66.02-55.71 76.35-7.7 2.47-15.91 3.8-24.43 3.8-44.27 0-80.15-35.88-80.15-80.15 0-44.26 35.88-80.14 80.15-80.14 8.52 0 16.73 1.33 24.43 3.8 32.31 10.33 55.71 40.6 55.71 76.34z"/><path fill="#654B87" d="M269.29 324.321c0 35.75-23.4 66.02-55.71 76.35-32.31-10.33-55.71-40.6-55.71-76.35 0-35.74 23.4-66.01 55.71-76.34 32.31 10.33 55.71 40.6 55.71 76.34z"/><path fill="#463068" d="M393.929 370.692c0 35.75-23.4 66.02-55.71 76.35-7.7 2.47-15.91 3.8-24.43 3.8-44.27 0-80.15-35.88-80.15-80.15 0-44.26 35.88-80.14 80.15-80.14 8.52 0 16.73 1.33 24.43 3.8 32.309 10.33 55.71 40.6 55.71 76.34z"/><path fill="#463068" d="M403.684 359.359c-.75.27-1.51.53-2.27.77-7.7 2.47-15.91 3.8-24.43 3.8-43.75 0-79.3-35.04-80.13-78.59a80.121 80.121 0 0 1 26.71-4.56c8.52 0 16.73 1.33 24.43 3.8 31.84 10.18 55.03 39.72 55.69 74.78z"/><path fill="#654B87" d="M393.929 370.692c0 35.75-23.4 66.02-55.71 76.35-32.31-10.33-55.71-40.6-55.71-76.35 0-35.74 23.4-66.01 55.71-76.34 32.309 10.33 55.71 40.6 55.71 76.34z"/><g><circle cx="150.593" cy="324.001" r="14.661" fill="#1E1915"/></g><g><circle cx="355.062" cy="386.227" r="14.661" fill="#1E1915"/></g><g><circle cx="420.546" cy="275.458" r="14.661" fill="#1E1915"/></g></svg>