<svg xmlns="http://www.w3.org/2000/svg" viewBox="0 0 512 512"><path fill="#895140" d="M158.674 0c-8.284 0-15 6.716-15 15v50.877c0 8.284 6.716 15 15 15s15-6.716 15-15V15c0-8.284-6.716-15-15-15z"/><path fill="#5b362a" d="M173.674 65.877V15c0-8.284-6.716-15-15-15v80.877c8.284 0 15-6.715 15-15z"/><path fill="#c9885b" d="M170.277 511.236c69.089-8.891 132.989-95.809 132.989-202.486 0-64.08-46.803-155.508-87.153-222.424-10.827-17.955-27.967-28.449-46.178-31.498 21.57 75.266 27.016 419.869.342 456.408z"/><path fill="#e3a76f" d="M147.412 54.827c-18.211 3.049-35.351 13.543-46.178 31.498-40.35 66.916-87.153 158.344-87.153 222.424 0 106.678 63.9 193.596 132.989 202.486-26.673-36.538-21.228-381.141.342-456.408z"/><path fill="#c9885b" d="M170.277 511.236c26.675-36.539 47.3-116.445 47.3-209.627 0-69.891-26.071-171.514-47.641-246.781a68.268 68.268 0 0 0-22.523 0c-21.57 75.267-47.641 176.89-47.641 246.781 0 93.182 20.625 173.088 47.3 209.627 3.855.496 7.725.764 11.603.764 3.876 0 7.746-.268 11.602-.764z"/><path fill="#895140" d="M158.674 53.892V512c3.877 0 7.748-.268 11.603-.764 26.675-36.539 47.3-116.445 47.3-209.627 0-69.891-26.071-171.514-47.641-246.781a68.183 68.183 0 0 0-11.262-.936zM353.567 0c-8.284 0-15 6.716-15 15v50.877c0 8.284 6.716 15 15 15s15-6.716 15-15V15c0-8.284-6.715-15-15-15z"/><path fill="#5b362a" d="M368.567 65.877V15c0-8.284-6.716-15-15-15v80.877c8.285 0 15-6.715 15-15z"/><path fill="#e3a76f" d="M209.217 308.742c0-63.841 46.725-154.929 87.007-221.595 26.039-43.093 88.648-43.093 114.687 0 40.283 66.667 87.007 157.754 87.007 221.595 0 112.211-71.111 202.493-144.351 202.493s-144.35-90.282-144.35-202.493z"/><path fill="#c9885b" d="M497.918 308.742c0-63.841-46.725-154.929-87.007-221.595-13.019-21.547-35.181-32.32-57.343-32.32v456.408c73.24.001 144.35-90.282 144.35-202.493z"/><path fill="#fff5f5" d="M294.426 339.838c9.305 46.746 30.808 90.868 59.142 90.868 28.333 0 49.836-44.122 59.141-90.868l-59.141-30zM383.599 175.029c-13.637-22.568-46.426-22.568-60.062 0-13.202 21.849-23.262 48.706-28.942 73.941l58.973 30 58.973-30c-5.681-25.235-15.74-52.092-28.942-73.941z"/><g fill="#efe2dd"><path d="M353.567 430.705c28.333 0 49.836-44.122 59.141-90.868l-59.141-30zM412.541 248.97c-5.681-25.235-15.74-52.092-28.942-73.941-6.818-11.284-18.425-16.926-30.031-16.926V278.97z"/><path d="M417.769 291.08c0-12.511-1.832-27.02-5.228-42.11H294.594c-3.397 15.089-5.228 29.599-5.228 42.11 0 15.357 1.768 32.221 5.06 48.758h118.283c3.292-16.537 5.06-33.402 5.06-48.758z"/></g><path fill="#cdbfba" d="M353.567 248.97v90.868h59.141c3.292-16.537 5.06-33.401 5.06-48.758 0-12.511-1.832-27.02-5.228-42.11z"/></svg>