<svg xmlns="http://www.w3.org/2000/svg" x="0" y="0" enable-background="new 0 0 512 512" version="1.1" viewBox="0 0 512 512" xml:space="preserve"><path fill="#FFA321" d="M286.676 128c0 16.942-13.734 30.676-30.676 30.676S225.323 144.942 225.323 128H0c0 141.385 114.615 256 256 256s256-114.615 256-256H286.676z"/><path fill="#FF7A09" d="M286.676 128c0 16.942-13.734 30.676-30.676 30.676V384c141.385 0 256-114.615 256-256H286.676z"/><path fill="#FFF566" d="M256 320.266c106.015 0 192.266-86.25 192.266-192.266h-161.59c0 16.942-13.734 30.676-30.676 30.676S225.324 144.942 225.324 128H63.734c0 106.016 86.25 192.266 192.266 192.266z"/><path fill="#FEDD31" d="M234.308 149.691 120.111 263.889c34.814 34.814 82.881 56.377 135.889 56.377v-161.59c-8.472 0-16.141-3.433-21.692-8.985z"/><path fill="#FFA321" d="M448.265 128H286.676c0 8.471-3.434 16.14-8.985 21.691l114.197 114.197c34.815-34.814 56.377-82.88 56.377-135.888z"/><path fill="#FCC10C" d="M277.691 149.691c-5.551 5.551-13.22 8.985-21.691 8.985v161.589c53.008 0 101.074-21.563 135.889-56.377L277.691 149.691z"/></svg>